<svg width="184" height="60" viewBox="0 0 184 60" fill="none" xmlns="http://www.w3.org/2000/svg">
<path d="M28.995 55V18.6364H34.4815V34.4389H52.6101V18.6364H58.1143V55H52.6101V39.1442H34.4815V55H28.995ZM66.1044 55V18.6364H88.9027V23.3594H71.5909V34.4389H87.7131V39.1442H71.5909V50.277H89.1158V55H66.1044ZM99.3031 55H93.4792L106.565 18.6364H112.904L125.99 55H120.166L109.885 25.2415H109.601L99.3031 55ZM100.28 40.7599H119.172V45.3764H100.28V40.7599ZM125.151 23.3594V18.6364H153.294V23.3594H141.948V55H136.479V23.3594H125.151Z" fill="#404040"/>
<path d="M152.775 3.81818H153.451L157.374 13.1051H157.444L161.366 3.81818H162.042V14H161.446V5.29474H161.386L157.702 14H157.115L153.431 5.29474H153.372V14H152.775V3.81818ZM168.907 10.8182H169.623L171.104 12.772L171.243 12.9609L172.745 14.9545H172.029L170.796 13.3189L170.667 13.1399L168.907 10.8182ZM173.083 8.90909C173.083 9.95975 172.901 10.8778 172.536 11.6634C172.171 12.4455 171.664 13.0537 171.015 13.4879C170.368 13.9221 169.623 14.1392 168.777 14.1392C167.929 14.1392 167.18 13.9221 166.53 13.4879C165.884 13.0504 165.379 12.4406 165.014 11.6584C164.649 10.8729 164.467 9.95644 164.467 8.90909C164.467 7.85843 164.649 6.942 165.014 6.1598C165.382 5.3776 165.889 4.76941 166.535 4.33523C167.182 3.89773 167.929 3.67898 168.777 3.67898C169.623 3.67898 170.368 3.89607 171.015 4.33026C171.664 4.76444 172.171 5.37429 172.536 6.1598C172.901 6.942 173.083 7.85843 173.083 8.90909ZM172.476 8.90909C172.476 7.96449 172.317 7.14583 171.999 6.45312C171.684 5.76042 171.248 5.22514 170.692 4.8473C170.135 4.46615 169.497 4.27557 168.777 4.27557C168.058 4.27557 167.42 4.46449 166.863 4.84233C166.307 5.21686 165.869 5.75213 165.551 6.44815C165.236 7.14086 165.079 7.96117 165.079 8.90909C165.079 9.84706 165.234 10.6641 165.546 11.3601C165.861 12.0528 166.297 12.5897 166.853 12.9709C167.41 13.352 168.052 13.5426 168.777 13.5426C169.497 13.5426 170.135 13.3537 170.692 12.9759C171.248 12.5947 171.684 12.0578 171.999 11.3651C172.317 10.6723 172.476 9.85369 172.476 8.90909Z" fill="#404040"/>
</svg>
