<svg width="151" height="65" viewBox="0 0 151 65" fill="none" xmlns="http://www.w3.org/2000/svg">
<path d="M3.99503 53V16.6364H9.48153V32.4389H27.6101V16.6364H33.1143V53H27.6101V37.1442H9.48153V53H3.99503ZM41.1044 53V16.6364H63.9027V21.3594H46.5909V32.4389H62.7131V37.1442H46.5909V48.277H64.1158V53H41.1044ZM74.3031 53H68.4792L81.5652 16.6364H87.9039L100.99 53H95.166L84.8855 23.2415H84.6014L74.3031 53ZM75.2797 38.7599H94.1717V43.3764H75.2797V38.7599ZM100.151 21.3594V16.6364H128.294V21.3594H116.948V53H111.479V21.3594H100.151Z" fill="white"/>
<path d="M126.69 1.36364H127.462L131.945 11.9773H132.025L136.508 1.36364H137.281V13H136.599V3.05114H136.531L132.32 13H131.65L127.44 3.05114H127.371V13H126.69V1.36364ZM145.126 9.36364H145.944L147.637 11.5966L147.796 11.8125L149.512 14.0909H148.694L147.285 12.2216L147.137 12.017L145.126 9.36364ZM149.898 7.18182C149.898 8.38258 149.69 9.43182 149.273 10.3295C148.857 11.2235 148.277 11.9186 147.535 12.4148C146.796 12.911 145.944 13.1591 144.978 13.1591C144.008 13.1591 143.152 12.911 142.41 12.4148C141.671 11.9148 141.094 11.2178 140.677 10.3239C140.26 9.42614 140.052 8.37879 140.052 7.18182C140.052 5.98106 140.26 4.93371 140.677 4.03977C141.097 3.14583 141.677 2.45076 142.415 1.95455C143.154 1.45455 144.008 1.20455 144.978 1.20455C145.944 1.20455 146.796 1.45265 147.535 1.94886C148.277 2.44508 148.857 3.14204 149.273 4.03977C149.69 4.93371 149.898 5.98106 149.898 7.18182ZM149.205 7.18182C149.205 6.10227 149.023 5.16667 148.66 4.375C148.3 3.58333 147.802 2.97159 147.165 2.53977C146.529 2.10417 145.8 1.88636 144.978 1.88636C144.156 1.88636 143.427 2.10227 142.79 2.53409C142.154 2.96212 141.654 3.57386 141.29 4.36932C140.931 5.16098 140.751 6.09848 140.751 7.18182C140.751 8.25379 140.929 9.1875 141.285 9.98295C141.645 10.7746 142.143 11.3883 142.779 11.8239C143.415 12.2595 144.148 12.4773 144.978 12.4773C145.8 12.4773 146.529 12.2614 147.165 11.8295C147.802 11.3939 148.3 10.7803 148.66 9.98864C149.023 9.19697 149.205 8.26136 149.205 7.18182Z" fill="white"/>
</svg>
